<svg width="635" height="169" viewBox="0 0 635 169" fill="none" xmlns="http://www.w3.org/2000/svg">
<path d="M20.8 165.6C12.6 166.8 8.49999 167.4 0.299988 168.6V1.40002C8.79999 1.40002 13.1 1.40002 21.7 1.40002C21.6 24.9 21.4 48.4 21.3 71.9C30.9 71.4 35.7 71.1 45.3 70.7C45.5 47.6 45.8 24.6 46 1.5C54.7 1.5 59.1 1.5 67.8 1.5C67.2 54.3 66.5 107.1 65.8 160C57.2 160.9 52.9 161.4 44.4 162.5C44.6 139.4 44.9 116.4 45.1 93.3C35.5 94 30.7 94.3 21.2 95.1C21.1 118.6 20.9 142.1 20.8 165.6Z" fill="#E50914"/>
<path d="M101.8 104.6C93 70.3 84.4 36 76.3 1.59998C85.2 1.59998 89.7 1.59995 98.6 1.69995C103.5 25.2 108.6 48.7 113.9 72.1C119.8 48.7 125.7 25.4 131.2 1.90002C139.4 1.90002 143.4 1.9 151.6 2C142.6 35.9 132.7 69.6 123.1 103.3C122.8 120.4 122.6 137.6 122.4 154.7C113.8 155.4 109.5 155.7 101 156.5C101.2 139.2 101.5 121.9 101.7 104.5L101.8 104.6Z" fill="#E50914"/>
<path d="M180.9 65.5C190.7 65.3 200.6 65.2 210.4 65.1C210.4 73.1 210.4 77.1 210.2 85.1C200.3 85.3 190.5 85.5 180.6 85.8C180.4 100.1 180.3 114.4 180.1 128.7C192.6 128.1 205 127.6 217.5 127.2C217.5 135.9 217.5 140.3 217.4 149.6C197.7 150.3 177.9 151.2 158.2 152.4C158.8 102.3 159.5 52.2 160.1 2.09998C179.5 2.19998 199 2.3 218.4 2.5C218.4 11.8 218.4 16.3 218.3 24.9C206 24.9 193.6 24.8 181.3 24.7C181.2 38.3 181 51.9 180.9 65.5Z" fill="#E50914"/>
<path d="M229.8 39.3001C229.7 19.5001 241 0.70008 262.5 0.80008C284 0.80008 295.2 19.9 294.9 39.7C294.9 63.5 294.9 87.4 294.9 111.2C295.1 131.2 283.6 150 262.1 150.4C240.5 150.8 229 132.5 229.4 112.5C229.5 88.1 229.7 63.8001 229.8 39.4001V39.3001ZM251 113.3C251 123.7 255.3 127.8 262.2 127.7C269.1 127.6 273.4 123.2 273.4 112.9C273.4 88.0001 273.4 63 273.5 38.1C273.5 27.8 269.2 23.5 262.4 23.5C255.6 23.5 251.3 27.7 251.3 38C251.3 63.1 251.1 88.3001 251 113.4V113.3Z" fill="#E50914"/>
<path d="M327.7 44.7C327.7 79.1 327.7 113.5 327.7 147.9C320 147.9 316.2 147.9 308.5 147.9C308.5 99.5 308.5 51.1 308.5 2.69995C319.2 2.69995 324.6 2.69995 335.3 2.69995C341.9 31.6 349.5 60.2 357.2 88.8C357.2 60.1 357.2 31.4 357.2 2.69995C364.8 2.69995 368.6 2.69995 376.2 2.69995C376.2 51.2999 376 99.9 375.9 148.6C367.2 148.4 362.8 148.3 354.1 148.2C346.3 113.4 336.7 79.2 327.6 44.7H327.7Z" fill="#E50914"/>
<path d="M412.7 68.6C423.7 68.8 429.2 68.9 440.1 69.2C440.1 77.2 440.1 81.2 440 89.3C429 88.9 423.6 88.8 412.6 88.5C412.5 109 412.4 129.4 412.3 149.9C403.8 149.6 399.6 149.4 391.2 149.1C391.3 100.3 391.5 51.6 391.7 2.80005C410.5 2.80005 429.4 2.80002 448.2 2.90002C448.2 12.2 448.2 16.7 448 25.4C436.3 25.4 424.6 25.3 412.9 25.3C412.9 39.7 412.8 54.2 412.7 68.6Z" fill="#E50914"/>
<path d="M458.5 3C467 3 471.3 3 479.9 3C479.5 45.6 479.1 88.2001 478.7 130.8C490.4 131.5 502 132.4 513.7 133.2C513.7 142.1 513.6 146.6 513.5 156C494.8 154.5 476.1 153.2 457.4 152C457.8 102.3 458.2 52.6 458.6 2.90002L458.5 3Z" fill="#E50914"/>
<path d="M524.4 3.19995C533 3.19995 537.2 3.19995 545.8 3.19995C545.3 55 544.7 106.9 544.2 158.7C535.6 157.9 531.3 157.5 522.8 156.8C523.3 105.6 523.9 54.4 524.4 3.19995Z" fill="#E50914"/>
<path d="M632.6 3.40002C625.3 29.8 617.8 56 609.9 82.2C618.1 111 626.2 139.7 634.2 168.6C624.9 167.4 620.2 166.9 611 165.8C605.3 143.8 599.5 121.9 593.5 100C587.3 120.6 581.1 141.2 575.1 161.8C567 161 562.9 160.5 554.9 159.8C563 133.3 571.4 107 579.7 80.6C572.3 54.9 565 29.1 558 3.30005C566.9 3.30005 571.3 3.30005 580.2 3.30005C585.3 23.2 590.6 43.1 596 62.9C601.9 43.1 607.4 23.3 612.9 3.40002C620.8 3.40002 624.8 3.40002 632.7 3.40002H632.6Z" fill="#E50914"/>
</svg>
